<svg width="16" height="16" viewBox="0 0 16 16" fill="none" xmlns="http://www.w3.org/2000/svg">
<path d="M8.00002 0.833337C11.9534 0.833338 15.1667 4.04667 15.1667 8C15.1667 11.9533 11.9534 15.1667 8.00002 15.1667C4.04669 15.1667 0.833353 11.9533 0.833354 8C0.833354 4.04667 4.04669 0.833337 8.00002 0.833337ZM8.00002 14.1667C11.4 14.1667 14.1667 11.4 14.1667 8C14.1667 4.60001 11.4 1.83334 8.00002 1.83334C4.60002 1.83334 1.83335 4.6 1.83335 8C1.83335 11.4 4.60002 14.1667 8.00002 14.1667Z" fill="#292D32"/>
<path d="M8 6.83334C8.27333 6.83334 8.5 7.06001 8.5 7.33334L8.5 10.6667C8.5 10.94 8.27333 11.1667 8 11.1667C7.72667 11.1667 7.5 10.94 7.5 10.6667L7.5 7.33334C7.5 7.06001 7.72667 6.83334 8 6.83334Z" fill="#292D32"/>
<path d="M8.00002 4.66667C8.08669 4.66667 8.17335 4.68667 8.25335 4.72001C8.33335 4.75334 8.40669 4.80001 8.47335 4.86001C8.53335 4.92667 8.58002 4.99334 8.61335 5.08001C8.64669 5.16001 8.66669 5.24667 8.66669 5.33334C8.66669 5.42001 8.64669 5.50667 8.61335 5.58667C8.58002 5.66667 8.53335 5.74001 8.47335 5.80667C8.40669 5.86667 8.33335 5.91334 8.25335 5.94667C8.09335 6.01334 7.90669 6.01334 7.74669 5.94667C7.66669 5.91334 7.59335 5.86667 7.52669 5.80667C7.46669 5.74001 7.42002 5.66667 7.38669 5.58667C7.35335 5.50667 7.33335 5.42001 7.33335 5.33334C7.33335 5.24667 7.35335 5.16001 7.38669 5.08001C7.42002 4.99334 7.46669 4.92667 7.52669 4.86001C7.59335 4.80001 7.66669 4.75334 7.74669 4.72001C7.82669 4.68667 7.91335 4.66667 8.00002 4.66667Z" fill="#292D32"/>
</svg>
